<svg width="25" height="16" viewBox="0 0 25 16" fill="none" xmlns="http://www.w3.org/2000/svg">
<path d="M24.1029 3.01992C23.6466 1.32992 22.7883 0.679922 21.202 0.449922C20.3003 0.329922 15.9327 0.169922 12.456 0.169922C8.97931 0.169922 4.63345 0.329922 3.72082 0.449922C2.14545 0.689922 1.28714 1.33992 0.830824 3.01992C0.678719 3.57992 0.461426 6.68992 0.461426 7.86992V8.12992C0.461426 9.30992 0.667854 12.4199 0.830824 12.9799C1.28714 14.6599 2.14545 15.3099 3.72082 15.5499C4.62258 15.6699 9.00104 15.8299 12.4669 15.8299H12.456C15.9327 15.8299 20.3003 15.6699 21.202 15.5499C22.7774 15.3199 23.6357 14.6699 24.1029 12.9799C24.255 12.4099 24.4614 9.30992 24.4614 8.12992V7.86992C24.4614 6.68992 24.255 3.57992 24.1029 3.01992ZM9.58773 10.8299V5.16992L15.346 7.93992L9.58773 10.8399V10.8299Z" fill="white"/>
</svg>
