<svg width="24" height="24" viewBox="0 0 24 24" fill="none" xmlns="http://www.w3.org/2000/svg">
<path d="M17.0708 0.0078125H6.92916C3.10146 0.0078125 0 3.10927 0 6.92843V17.0701C0 20.8978 3.10146 23.9907 6.92916 23.9907H17.0708C20.8985 23.9907 24 20.8978 24 17.0701V6.92843C23.9915 3.10927 20.89 0.0078125 17.0708 0.0078125ZM21.7871 17.2581C21.7871 19.7956 19.728 21.8547 17.1905 21.8547H6.801C4.26344 21.8547 2.20434 19.7956 2.20434 17.2581V6.87716C2.20434 4.3396 4.26344 2.28051 6.801 2.28051H17.1819C19.7195 2.28051 21.7786 4.3396 21.7786 6.87716V17.2581H21.7871Z" fill="white"/>
<path d="M11.9957 5.8348C8.56105 5.8348 5.77572 8.62013 5.77572 12.0633C5.77572 15.5066 8.56105 18.2834 11.9957 18.2834C15.4304 18.2834 18.2243 15.498 18.2243 12.0633C18.2243 8.62867 15.4389 5.8348 11.9957 5.8348ZM11.9957 16.0961C9.76575 16.0961 7.96298 14.2933 7.96298 12.0633C7.96298 9.83337 9.76575 8.02205 11.9957 8.02205C14.2257 8.02205 16.0285 9.83337 16.0285 12.0633C16.0285 14.2933 14.2257 16.0961 11.9957 16.0961Z" fill="white"/>
<path d="M18.4293 4.15164C17.6262 4.15164 16.9769 4.80098 16.9769 5.60411C16.9769 6.40724 17.6262 7.05658 18.4293 7.05658C19.2325 7.05658 19.8818 6.40724 19.8818 5.60411C19.8818 4.80098 19.2325 4.15164 18.4293 4.15164Z" fill="white"/>
</svg>
