<svg width="13" height="112" viewBox="0 0 13 112" fill="none" xmlns="http://www.w3.org/2000/svg">
<path d="M7.72559 39.0273L7.72559 40.1768C8.98242 40.1392 9.88477 39.0381 9.88477 37.459C9.88477 35.8853 8.99316 34.6929 7.65039 34.6875C6.56543 34.6929 5.93164 35.4663 5.58789 36.7178L5.34082 37.6416C5.12061 38.4634 4.84668 39.1079 4.16992 39.1133C3.40723 39.1079 2.90771 38.3882 2.90234 37.3945C2.90771 36.4868 3.31055 35.7349 4.15918 35.665L4.15918 34.4834C2.74121 34.5586 1.87109 35.6543 1.87109 37.3945C1.87109 39.2314 2.83252 40.2788 4.14844 40.2842C5.55566 40.2788 6.09814 39.0327 6.33984 38.0391L6.54395 37.2871C6.68896 36.6694 6.979 35.8691 7.71484 35.8691C8.37549 35.8745 8.86426 36.4761 8.86426 37.4268C8.86426 38.3184 8.45068 38.9521 7.72559 39.0273ZM7.24219 46.8154L7.24219 48.0078C8.9126 47.7446 9.88477 46.4395 9.88477 44.7959C9.88477 42.7817 8.37549 41.2939 5.88867 41.2939C3.40186 41.2939 1.89258 42.771 1.89258 44.7959C1.89258 46.5093 2.9668 47.7607 4.50293 48.0078L4.51367 46.8154C3.52002 46.6113 2.97217 45.7842 2.97754 44.8066C2.97217 43.4692 3.99268 42.4702 5.88867 42.4648C7.77393 42.4702 8.80518 43.4639 8.7998 44.8066C8.80518 45.7949 8.24658 46.6274 7.24219 46.8154ZM2 49.2861L2 50.4678L4.93262 50.4678L4.93262 52.0576L4.93262 52.1328L2 53.7119L2 55.0547L5.14209 53.3359C5.50195 54.2812 6.2915 54.7539 7.33887 54.7539C8.77295 54.7539 9.77734 53.8677 9.77734 52.0576L9.77734 49.2861L2 49.2861ZM5.95312 50.4678L8.76758 50.4678L8.76758 51.9395C8.76221 53.0835 8.21435 53.5615 7.33887 53.5615C6.46338 53.5615 5.9585 53.0835 5.95312 51.9395L5.95312 50.4678ZM5.88867 62.8213C8.37549 62.8213 9.88476 61.3281 9.88476 59.3193C9.88476 57.2944 8.37549 55.8066 5.88867 55.8066C3.40723 55.8066 1.89258 57.2944 1.89258 59.3193C1.89258 61.3281 3.40185 62.8213 5.88867 62.8213ZM5.88867 56.9775C7.7793 56.9829 8.80517 57.9766 8.7998 59.3193C8.80517 60.6514 7.7793 61.645 5.88867 61.6504C3.99805 61.645 2.97217 60.6514 2.97754 59.3193C2.97217 57.9766 3.99805 56.9829 5.88867 56.9775ZM2 64.1533L2 68.8477L3.02051 68.8477L3.02051 65.335L9.77734 65.335L9.77734 64.1533L2 64.1533ZM2 70.0615L2 74.7559L3.02051 74.7559L3.02051 71.2432L9.77734 71.2432L9.77734 70.0615L2 70.0615ZM2 81.1797C2 83.5483 3.47168 84.9126 5.89941 84.918C8.32178 84.9126 9.77734 83.5483 9.77734 81.2549L9.77734 78.6553L2 78.6553L2 81.1797ZM3.03125 79.8369L8.74609 79.8369L8.74609 81.1797C8.74609 82.877 7.73095 83.7471 5.89941 83.7471C4.0625 83.7471 3.03662 82.877 3.03125 81.1152L3.03125 79.8369ZM5.88867 93.0068C8.37549 93.0068 9.88476 91.5137 9.88476 89.5049C9.88476 87.48 8.37549 85.9922 5.88867 85.9922C3.40722 85.9922 1.89258 87.48 1.89258 89.5049C1.89258 91.5137 3.40185 93.0068 5.88867 93.0068ZM5.88867 87.1631C7.77929 87.1685 8.80517 88.1621 8.7998 89.5049C8.80517 90.8369 7.77929 91.8306 5.88867 91.8359C3.99804 91.8306 2.97217 90.8369 2.97754 89.5049C2.97217 88.1621 3.99804 87.1685 5.88867 87.1631ZM2 95.7676L2 96.96L7.81152 98.5928L7.81152 98.6572L2 100.29L2 101.482L9.77734 103.642L9.77734 102.396L3.76172 100.881L3.76172 100.816L9.77734 99.2373L9.77734 98.0127L3.76172 96.4336L3.76172 96.3691L9.77734 94.8545L9.77734 93.6084L2 95.7676ZM9.77734 110.882L9.77734 109.722L4.08398 109.722L4.08398 109.646L9.77734 105.704L9.77734 104.608L2 104.608L2 105.79L7.68261 105.79L7.68261 105.854L2 109.797L2 110.882L9.77734 110.882Z" fill="white"/>
<rect x="1" y="1" width="10" height="16" rx="5" stroke="white" stroke-width="2"/>
<rect x="5" y="5" width="2" height="4" rx="1" fill="white"/>
</svg>
