<svg width="180" height="180" viewBox="0 0 180 180" fill="none" xmlns="http://www.w3.org/2000/svg">
<rect width="180" height="180" rx="90" fill="#012577"/>
<path d="M50.108 83.632H53.756C53.708 87.592 52.724 90.4 49.22 92.608L51.068 95.224C53.324 93.88 55.004 91.816 55.628 89.944C56.252 91.624 57.812 93.616 59.924 94.84L61.772 92.224C58.292 90.04 57.284 87.496 57.236 83.632H60.884V80.656H50.108V83.632ZM66.692 99.736V78.952H63.236V99.736H66.692ZM71.0204 83.152C71.0204 85.504 73.2524 86.992 76.5644 86.992C79.8764 86.992 82.1084 85.504 82.1084 83.152C82.1084 80.8 79.8764 79.312 76.5644 79.312C73.2524 79.312 71.0204 80.8 71.0204 83.152ZM87.5324 95.32V78.952H84.0764V91.264H80.6924V93.856H84.0764V95.32H87.5324ZM73.8284 98.944C73.8284 99.664 74.2844 99.976 75.0524 99.976H88.0124V97.048H77.2844V94.48H73.8284V98.944ZM78.1004 93.76V90.544C80.2364 90.472 82.1564 90.232 83.4764 89.464L83.1164 87.232C81.7724 87.688 79.3244 87.784 77.4284 87.784H70.1084V90.568H74.6444V93.76H78.1004ZM78.6764 83.152C78.6764 83.92 77.8124 84.256 76.5644 84.256C75.3164 84.256 74.4524 83.92 74.4524 83.152C74.4524 82.384 75.3164 82.048 76.5644 82.048C77.8124 82.048 78.6764 82.384 78.6764 83.152ZM90.2769 87.184H92.3409C91.6449 87.904 91.2129 88.864 91.2129 90.064C91.2129 93.064 93.3969 95.008 96.5169 95.008C99.6369 95.008 101.797 93.064 101.797 90.064C101.797 88.864 101.341 87.904 100.645 87.184H102.733V84.304H90.2769V87.184ZM107.365 99.736V89.176H110.077V86.2H107.365V78.952H103.909V99.736H107.365ZM92.9649 83.104H100.045V80.176H92.9649V83.104ZM94.5489 90.064C94.5489 88.696 95.3889 87.88 96.5169 87.88C97.6449 87.88 98.4609 88.696 98.4609 90.064C98.4609 91.432 97.6449 92.2 96.5169 92.2C95.3889 92.2 94.5489 91.432 94.5489 90.064ZM128.637 99.736V78.952H125.181V99.736H128.637ZM112.725 95.2C118.941 92.752 122.301 88.744 122.301 82.744V80.776H112.293V83.752H118.845C118.845 87.472 115.701 90.544 111.309 92.224L112.725 95.2Z" fill="white"/>
</svg>
