<svg width="172" height="171" viewBox="0 0 172 171" fill="none" xmlns="http://www.w3.org/2000/svg">
<g opacity="0.2">
<path d="M154.416 107.207L153.761 108.859L157.675 110.412L155.976 114.694L152.062 113.142L151.402 114.806L160.603 118.456L161.263 116.791L157.361 115.244L159.06 110.961L162.962 112.509L163.617 110.857L154.416 107.207Z" fill="white"/>
<path d="M146.928 131.855C149.561 133.671 152.223 133.128 153.69 130.992C155.164 128.845 154.708 126.177 152.067 124.371C149.439 122.558 146.779 123.087 145.304 125.234C143.838 127.37 144.286 130.049 146.928 131.855ZM151.053 125.848C152.922 127.123 153.284 128.757 152.371 130.086C151.454 131.422 149.803 131.665 147.941 130.378C146.072 129.103 145.706 127.475 146.623 126.139C147.536 124.809 149.191 124.561 151.053 125.848Z" fill="white"/>
<path d="M139.93 138.792C140.674 139.575 140.631 140.473 139.956 141.104C139.301 141.734 138.5 141.674 137.814 140.95L134.746 137.716L133.487 138.911L136.742 142.344C137.96 143.638 139.39 143.676 140.506 142.617C141.31 141.855 141.498 140.951 141.172 140.12L141.241 140.054L142.107 140.967L143.317 139.819L138.208 134.433L136.939 135.637L139.93 138.792Z" fill="white"/>
<path d="M124.742 145.42C122.187 147.007 121.656 149.534 123.285 152.168C124.917 154.783 127.41 155.415 129.919 153.857L132.822 152.053L127.599 143.645L124.742 145.42ZM126.904 145.895L130.497 151.679L129.185 152.494C127.476 153.564 125.992 153.158 124.794 151.23C123.589 149.29 123.875 147.769 125.638 146.682L126.904 145.895Z" fill="white"/>
<path d="M114.523 150.857L112.894 151.496L114.491 155.569C114.833 156.441 114.416 157.324 113.515 157.685C113.245 157.784 112.89 157.871 112.724 157.878L113.313 159.38C113.473 159.339 113.735 159.258 113.914 159.188C114.709 158.876 115.194 158.165 115.13 157.272L115.206 157.242L115.656 158.388L117.234 157.768L114.523 150.857Z" fill="white"/>
<path d="M100.906 154.954C99.2198 155.306 98.2286 156.379 98.1834 157.701L99.8563 157.352C99.9864 156.871 100.421 156.445 101.172 156.296C102.275 156.058 103.158 156.642 103.443 157.875L98.3706 158.933L98.4824 159.469C99.0144 162.018 100.787 162.815 102.567 162.443C104.641 162.01 105.688 160.2 105.219 157.951C104.744 155.676 103.094 154.498 100.906 154.954ZM103.679 159.041C103.812 159.977 103.287 160.91 102.263 161.124C101.28 161.329 100.46 160.746 100.246 159.757L103.679 159.041Z" fill="white"/>
<path d="M91.7436 158.584C91.7089 157.115 90.6176 156.368 89.203 156.402C88.0344 156.429 87.3571 156.992 87.0439 157.629L86.9893 157.63L86.965 156.605L85.2975 156.645L85.415 161.606C85.4617 163.581 87.102 164.123 88.5098 164.09C90.3686 164.046 91.4806 163.069 91.5737 161.802L89.8925 161.842C89.7684 162.378 89.2985 162.745 88.5194 162.763C87.6515 162.784 87.1699 162.371 87.1524 161.633L87.1315 161.039C87.4592 161.017 88.5174 160.945 89.0358 160.891C90.4073 160.77 91.7831 160.252 91.7436 158.584ZM90.0628 158.638C90.0782 159.287 89.5602 159.648 88.7349 159.736C88.387 159.772 87.418 159.856 87.104 159.877L87.0828 159.269C87.063 158.435 87.7231 157.722 88.7824 157.697C89.5136 157.68 90.0476 157.995 90.0628 158.638Z" fill="white"/>
<path d="M78.4135 156.388L76.6961 156.051L75.829 160.479C75.6516 161.385 74.9282 161.877 74.1903 161.732C73.4591 161.589 73.0586 161.002 73.2003 160.243L74.1201 155.547L72.4564 155.221L71.5655 159.769C71.4039 160.595 70.8025 161.069 69.964 160.905C69.2663 160.768 68.7963 160.251 68.9737 159.345L69.8803 154.717L68.1764 154.383L67.2172 159.28C66.8925 160.902 67.6635 161.945 68.9985 162.206C70.0585 162.414 70.9727 162.05 71.4456 161.306L71.5261 161.322C71.6396 162.201 72.2521 162.843 73.2383 163.037C74.2043 163.226 75.0328 162.873 75.4976 162.1L75.5915 162.118L75.3497 163.353L76.9866 163.673L78.4135 156.388Z" fill="white"/>
<path d="M46.4306 150.654L45.0088 149.808C44.432 151.032 44.9283 152.337 46.45 153.242C48.007 154.168 49.487 154.007 50.1835 152.822C50.731 151.915 50.4845 150.925 49.441 149.979L48.5514 149.147C47.9973 148.635 47.8492 148.229 48.0634 147.855C48.3523 147.383 48.9971 147.368 49.7163 147.804C50.4189 148.214 50.6812 148.736 50.4444 149.335L51.9719 150.243C52.5401 148.927 52.0158 147.629 50.3942 146.664C48.7256 145.672 47.1777 145.881 46.459 147.076C45.9197 147.996 46.1753 148.903 47.2225 149.884L48.1708 150.75C48.7262 151.287 48.8438 151.691 48.6423 152.017C48.3896 152.455 47.7273 152.499 47.0904 152.112C46.4524 151.74 46.2381 151.191 46.4306 150.654Z" fill="white"/>
<path d="M34.2923 144.325L35.4068 145.273L34.2555 146.627L35.5784 147.751L36.7296 146.397L37.5421 147.088L38.4099 146.067L37.5975 145.377L40.2808 142.221C41.1945 141.167 40.8444 140.017 39.84 139.172C39.5059 138.879 39.2242 138.693 39.0458 138.586L38.1248 139.67C38.3003 139.801 38.574 140.007 38.7258 140.145C39.0547 140.433 39.2325 140.773 38.772 141.315L36.2747 144.252L35.1601 143.304L34.2923 144.325Z" fill="white"/>
<path d="M32.4979 135.233C33.6238 134.289 33.5257 132.97 32.6161 131.886C31.8648 130.99 31.0021 130.813 30.3094 130.966L30.2742 130.924L31.0597 130.265L29.9876 128.987L26.1857 132.177C24.6723 133.447 25.273 135.067 26.1781 136.146C27.3733 137.57 28.8306 137.829 29.8785 137.11L28.7975 135.822C28.3012 136.06 27.7213 135.922 27.2204 135.325C26.6624 134.66 26.6839 134.026 27.2494 133.551L27.7006 133.164C27.922 133.406 28.6397 134.187 29.0051 134.559C29.9564 135.554 31.2201 136.305 32.4979 135.233ZM31.4065 133.954C30.909 134.371 30.3036 134.192 29.7196 133.602C29.4745 133.353 28.8035 132.649 28.5909 132.417L29.0526 132.021C29.6914 131.484 30.6606 131.555 31.3416 132.366C31.8118 132.927 31.8988 133.541 31.4065 133.954Z" fill="white"/>
<path d="M26.0192 123.277L25.1344 121.767L21.3597 123.979C20.5517 124.452 19.6143 124.177 19.1176 123.343C18.9784 123.092 18.8365 122.755 18.8042 122.592L17.4123 123.408C17.4775 123.56 17.5981 123.806 17.6948 123.971C18.1268 124.708 18.905 125.076 19.7771 124.874L19.8185 124.945L18.7569 125.567L19.614 127.03L26.0192 123.277Z" fill="white"/>
<path d="M12.641 112.841L13.1782 114.202L11.525 114.854L12.1626 116.469L13.8158 115.817L14.2073 116.809L15.4536 116.317L15.062 115.325L18.9152 113.804C20.2174 113.304 20.4499 112.125 19.9616 110.906C19.8048 110.491 19.6437 110.194 19.5366 110.016L18.214 110.538C18.3071 110.736 18.4517 111.047 18.5206 111.24C18.6749 111.65 18.6719 112.033 18.0106 112.294L14.4245 113.71L13.8873 112.349L12.641 112.841Z" fill="white"/>
<path d="M12.1221 89.898C13.2537 89.8131 13.8741 90.5892 13.9313 91.3527C13.9947 92.1979 13.4368 92.8019 12.4961 92.8725L8.0515 93.2058L8.18239 94.9509L12.8996 94.5971C14.6715 94.4574 15.6047 93.3728 15.4948 91.9072C15.4119 90.8029 14.7742 90.0692 13.9238 89.7903L13.9177 89.7085L15.2265 89.6103L15.1007 87.9334L7.6977 88.4886L7.82757 90.2201L12.1221 89.898Z" fill="white"/>
<path d="M17.9396 80.7609L18.1512 79.0237L14.2154 78.5443L14.2237 78.4764C14.7996 78.2711 15.6231 77.7861 15.7845 76.518C15.9893 74.78 14.7629 73.3153 12.3412 73.0134C9.88389 72.7209 8.39104 73.8957 8.18439 75.5922C8.02486 76.9018 8.73909 77.5397 9.22936 77.868L9.21613 77.9766L8.00826 77.8295L7.80161 79.5259L17.9396 80.7609ZM11.6862 78.2775C10.2552 78.0963 9.40671 77.3732 9.53797 76.2391C9.6861 75.0796 10.742 74.6091 12.1127 74.776C13.5038 74.9455 14.4413 75.6726 14.3016 76.8194C14.1652 77.939 13.1256 78.4459 11.6862 78.2775Z" fill="white"/>
<path d="M17.2299 49.121L18.0329 47.4895C16.1582 46.9021 14.1982 47.8194 13.2353 49.7759C12.0912 52.1005 12.9452 54.6845 15.8002 56.082C18.6124 57.4737 21.1784 56.6718 22.3859 54.2185C23.4665 52.0227 22.8225 49.7553 20.5347 48.6294L19.4675 48.1041L17.6926 51.7106L18.9561 52.3324L19.9703 50.2716C21.2217 50.9179 21.6117 52.1689 20.9507 53.5121C20.2202 54.9964 18.5937 55.4683 16.5788 54.4691C14.5763 53.4911 13.9732 51.8991 14.6765 50.47C15.2078 49.3905 16.1435 48.9444 17.2299 49.121Z" fill="white"/>
<path d="M28.1406 44.1391L29.1947 42.7422L25.7024 40.1069C24.9548 39.5428 24.8483 38.5718 25.4275 37.7928C25.6059 37.5678 25.8623 37.3074 26.0007 37.2148L24.7129 36.2431C24.5977 36.3617 24.4166 36.5676 24.3014 36.7204C23.7867 37.4025 23.7459 38.2623 24.2674 38.9898L24.218 39.0553L23.2358 38.3142L22.2146 39.6674L28.1406 44.1391Z" fill="white"/>
<path d="M37.5519 33.5698C39.1435 32.0891 39.1119 30.0178 37.5471 28.3457C35.9783 26.6494 33.9193 26.4734 32.3277 27.9541C30.7411 29.4301 30.768 31.4964 32.3418 33.1881C33.9016 34.8648 35.9653 35.0457 37.5519 33.5698ZM33.6238 31.9768C32.6972 30.9808 32.3877 29.7749 33.2782 28.9558C34.1445 28.1406 35.3249 28.5364 36.2464 29.537C37.178 30.5284 37.4829 31.7292 36.612 32.5394C35.7261 33.3635 34.5504 32.9728 33.6238 31.9768Z" fill="white"/>
<path d="M48.1283 21.4731C48.7245 22.4386 48.3211 23.3466 47.6697 23.7488C46.9485 24.1942 46.1555 23.9769 45.6598 23.1743L43.3179 19.3821L41.829 20.3016L44.3145 24.3264C45.2542 25.8351 46.6466 26.1643 47.8971 25.392C48.8393 24.8102 49.1971 23.9063 49.0533 23.023L49.1231 22.9799L49.8127 24.0966L51.2435 23.213L47.3428 16.8965L45.8655 17.8089L48.1283 21.4731Z" fill="white"/>
<path d="M58.06 15.1331C57.6824 14.1212 58.0734 13.3113 58.9404 12.9951C59.7898 12.6708 60.5037 13.0392 60.8526 13.9743L62.4108 18.1501L64.0376 17.5431L62.3838 13.1111C61.7688 11.4435 60.4673 10.8493 59.0262 11.387C57.9887 11.7742 57.4618 12.5326 57.4371 13.4247L57.3475 13.4581L56.9077 12.2797L55.345 12.8628L57.9404 19.8182L59.58 19.2064L58.06 15.1331Z" fill="white"/>
<path d="M73.9911 15.2199C75.2585 15.007 75.6968 14.1671 75.8858 13.5823L75.9802 13.567L76.1688 14.7275L77.8557 14.4535L76.2683 4.68316L74.5544 4.96161L75.1464 8.60524L75.0789 8.6162C74.7314 8.1394 74.0655 7.45115 72.7767 7.66053C71.0764 7.9368 69.9552 9.47636 70.3521 11.9189C70.7435 14.3278 72.2694 15.4927 73.9911 15.2199ZM72.1042 11.6204C71.8828 10.2574 72.3176 9.18257 73.4636 8.98946C74.5848 8.81423 75.3546 9.63102 75.5859 11.0547C75.8183 12.4852 75.3465 13.5453 74.2332 13.7262C73.0996 13.9104 72.329 13.0036 72.1042 11.6204Z" fill="white"/>
<path d="M94.1784 14.2688L95.9286 14.5784L96.662 10.4318L101.199 11.2343L100.466 15.3809L102.229 15.6928L103.953 5.94569L102.19 5.63374L101.459 9.76685L96.9216 8.96434L97.6526 4.83123L95.9025 4.52166L94.1784 14.2688Z" fill="white"/>
<path d="M119.829 16.6444C121.079 13.6993 120.01 11.2011 117.623 10.1942C115.224 9.18198 112.702 10.1659 111.464 13.1162C110.217 16.055 111.27 18.5542 113.67 19.5664C116.057 20.5734 118.592 19.5948 119.829 16.6444ZM113.115 13.8123C113.988 11.7248 115.515 11.0411 117.002 11.6681C118.494 12.2977 119.064 13.8662 118.179 15.9483C117.306 18.0358 115.785 18.7222 114.292 18.0926C112.805 17.4656 112.229 15.8945 113.115 13.8123Z" fill="white"/>
<path d="M128.031 22.1043C128.649 21.2186 129.538 21.0801 130.291 21.6138C131.04 22.1284 131.143 22.9252 130.572 23.7437L128.021 27.3988L129.445 28.3924L132.152 24.5131C133.175 23.0594 132.924 21.6508 131.663 20.7706C130.754 20.1369 129.831 20.1343 129.083 20.621L129.004 20.5662L129.724 19.5347L128.356 18.5802L124.108 24.6683L125.543 25.6698L128.031 22.1043Z" fill="white"/>
<path d="M137.581 35.6488C139.65 37.8321 142.231 37.8436 144.484 35.7186C146.717 33.5931 146.835 31.0238 144.803 28.8802L142.453 26.3991L135.267 33.2074L137.581 35.6488ZM137.611 33.4349L142.554 28.7519L143.616 29.8733C145.008 31.3325 144.909 32.8675 143.261 34.4285C141.604 35.9989 140.056 36.0249 138.636 34.5167L137.611 33.4349Z" fill="white"/>
<path d="M144.962 44.5637L145.916 46.031L149.584 43.6466C150.369 43.1362 151.318 43.3671 151.853 44.1773C152.004 44.4217 152.161 44.7516 152.201 44.9132L153.554 44.0339C153.481 43.8852 153.35 43.6448 153.245 43.4843C152.78 42.7678 151.985 42.4363 151.123 42.6785L151.079 42.6097L152.11 41.9391L151.186 40.5177L144.962 44.5637Z" fill="white"/>
<path d="M151.716 57.0782C152.4 58.6592 153.65 59.4143 154.955 59.1926L154.276 57.6241C153.779 57.5935 153.274 57.2532 152.976 56.5479C152.522 55.5154 152.916 54.5329 154.066 54.0057L156.124 58.7613L156.626 58.5441C159.016 57.51 159.439 55.6137 158.717 53.9448C157.876 51.9999 155.892 51.3389 153.784 52.2509C151.65 53.1738 150.828 55.0266 151.716 57.0782ZM155.16 53.5396C156.051 53.2215 157.071 53.5474 157.486 54.5073C157.885 55.4296 157.479 56.3501 156.553 56.7582L155.16 53.5396Z" fill="white"/>
<path d="M157.116 65.3229C155.683 65.6526 155.171 66.8718 155.489 68.2508C155.751 69.3899 156.439 69.9401 157.125 70.1188L157.138 70.1721L156.138 70.4021L156.512 72.0275L161.349 70.9142C163.274 70.471 163.475 68.7552 163.159 67.3829C162.742 65.5709 161.562 64.6782 160.302 64.842L160.679 66.4808C161.229 66.4944 161.683 66.881 161.858 67.6404C162.053 68.4864 161.745 69.0412 161.026 69.2068L160.448 69.3469C160.361 69.0302 160.077 68.0083 159.92 67.5113C159.525 66.1922 158.741 64.9487 157.116 65.3229ZM157.506 66.9586C158.139 66.8129 158.597 67.2477 158.849 68.0384C158.954 68.372 159.232 69.3042 159.315 69.6076L158.724 69.7507C157.911 69.9378 157.08 69.4347 156.842 68.4021C156.678 67.6893 156.88 67.1028 157.506 66.9586Z" fill="white"/>
<path d="M157.646 78.8237L157.662 80.5736L162.174 80.5322C163.096 80.5238 163.724 81.1333 163.731 81.8852C163.738 82.6303 163.243 83.1407 162.471 83.1546L157.686 83.1985L157.702 84.8937L162.336 84.8512C163.177 84.8435 163.763 85.3372 163.77 86.1916C163.777 86.9026 163.365 87.4669 162.442 87.4754L157.726 87.5186L157.742 89.2549L162.732 89.2091C164.386 89.2008 165.252 88.2358 165.24 86.8755C165.23 85.7954 164.689 84.9732 163.866 84.6595L163.865 84.5774C164.703 84.2895 165.209 83.5602 165.2 82.5553C165.191 81.571 164.678 80.8306 163.828 80.5307L163.827 80.435L165.085 80.4235L165.069 78.7556L157.646 78.8237Z" fill="white"/>
</g>
</svg>
